<svg width="214" height="31" viewBox="0 0 214 31" fill="none" xmlns="http://www.w3.org/2000/svg">
<path d="M22.168 30.048V27.84C19.928 29.632 17.032 30.528 13.48 30.528C9.448 30.528 6.248 29.328 3.88 26.928C1.672 24.688 0.568 21.824 0.568 18.336C0.568 14.752 1.688 11.84 3.928 9.6C6.328 7.2 9.576 6 13.672 6C17.064 6 19.896 6.864 22.168 8.592V6.096H26.776V30.048H22.168ZM19.912 12.288C18.44 10.816 16.28 10.08 13.432 10.08C10.808 10.08 8.744 10.88 7.24 12.48C5.864 13.984 5.176 15.936 5.176 18.336C5.176 20.736 5.864 22.656 7.24 24.096C8.712 25.664 10.776 26.448 13.432 26.448C16.088 26.448 18.2 25.68 19.768 24.144C21.368 22.608 22.168 20.672 22.168 18.336C22.168 15.776 21.416 13.76 19.912 12.288ZM37.4057 11.232V30H32.8937L32.7977 11.232H27.9977V7.056H32.7977V0.527999H37.4057V7.056H42.2537V11.232H37.4057ZM65.0871 27.12C62.6231 29.392 59.3271 30.528 55.1991 30.528C51.0711 30.528 47.7911 29.392 45.3591 27.12C42.9271 24.848 41.7111 21.904 41.7111 18.288C41.7111 14.672 42.9431 11.728 45.4071 9.456C47.8711 7.152 51.1671 6 55.2951 6C59.4231 6 62.7031 7.152 65.1351 9.456C67.5671 11.728 68.7831 14.672 68.7831 18.288C68.7831 21.904 67.5511 24.848 65.0871 27.12ZM61.8231 12.336C60.2871 10.832 58.0951 10.08 55.2471 10.08C52.4311 10.08 50.2391 10.832 48.6711 12.336C47.1351 13.84 46.3671 15.824 46.3671 18.288C46.3671 20.72 47.1511 22.688 48.7191 24.192C50.2871 25.696 52.4631 26.448 55.2471 26.448C58.0311 26.448 60.2071 25.696 61.7751 24.192C63.3751 22.688 64.1751 20.72 64.1751 18.288C64.1751 15.792 63.3911 13.808 61.8231 12.336ZM102.619 30V14.976C102.619 13.248 102.203 12 101.371 11.232C100.571 10.464 99.2594 10.08 97.4354 10.08C95.3874 10.08 93.7874 10.576 92.6354 11.568C91.5154 12.56 90.9554 13.888 90.9554 15.552V30H86.3474V14.976C86.3474 13.248 85.9154 12 85.0514 11.232C84.2194 10.464 82.8754 10.08 81.0194 10.08C78.9714 10.08 77.3714 10.768 76.2194 12.144C75.1634 13.392 74.6354 14.992 74.6354 16.944V30H70.0274V6.48H74.6354V7.92C76.5234 6.64 78.8114 6 81.4994 6C84.7634 6 87.2914 7.008 89.0834 9.024C90.9394 7.008 93.6914 6 97.3394 6C100.507 6 102.939 6.736 104.635 8.208C106.363 9.648 107.227 11.76 107.227 14.544V30H102.619ZM127.838 29.232C126.046 30.16 123.742 30.624 120.926 30.624C113.086 30.624 109.166 27.008 109.166 19.776H113.87C113.87 22.272 114.398 24.016 115.454 25.008C116.51 25.968 118.35 26.448 120.974 26.448C124.974 26.448 126.974 25.424 126.974 23.376C126.974 22.128 125.662 21.232 123.038 20.688C122.814 20.656 121.214 20.432 118.238 20.016C112.862 19.248 110.174 16.992 110.174 13.248C110.174 10.816 111.294 8.944 113.534 7.632C115.39 6.512 117.582 5.952 120.11 5.952C127.694 5.952 131.502 9.248 131.534 15.84H126.782C126.782 13.696 126.302 12.208 125.342 11.376C124.414 10.544 122.75 10.128 120.35 10.128C118.75 10.128 117.438 10.416 116.414 10.992C115.39 11.568 114.878 12.32 114.878 13.248C114.878 14.432 116.142 15.232 118.67 15.648C119.502 15.808 121.182 16.096 123.71 16.512C129.022 17.344 131.678 19.632 131.678 23.376C131.678 26 130.398 27.952 127.838 29.232ZM141.63 11.232V30H137.118L137.022 11.232H132.222V7.056H137.022V0.527999H141.63V7.056H146.478V11.232H141.63ZM167.535 30.048V27.84C165.295 29.632 162.399 30.528 158.847 30.528C154.815 30.528 151.615 29.328 149.247 26.928C147.039 24.688 145.935 21.824 145.935 18.336C145.935 14.752 147.055 11.84 149.295 9.6C151.695 7.2 154.943 6 159.039 6C162.431 6 165.263 6.864 167.535 8.592V6.096H172.143V30.048H167.535ZM165.279 12.288C163.807 10.816 161.647 10.08 158.799 10.08C156.175 10.08 154.111 10.88 152.607 12.48C151.231 13.984 150.543 15.936 150.543 18.336C150.543 20.736 151.231 22.656 152.607 24.096C154.079 25.664 156.143 26.448 158.799 26.448C161.455 26.448 163.567 25.68 165.135 24.144C166.735 22.608 167.535 20.672 167.535 18.336C167.535 15.776 166.783 13.76 165.279 12.288ZM182.773 11.232V30H178.261L178.165 11.232H173.365V7.056H178.165V0.527999H182.773V7.056H187.621V11.232H182.773ZM191.638 20.112C192.182 24.336 194.998 26.448 200.086 26.448C204.246 26.448 207.046 24.704 208.486 21.216H213.238C211.894 25.088 209.99 27.648 207.526 28.896C205.382 29.984 202.87 30.528 199.99 30.528C195.734 30.528 192.47 29.392 190.198 27.12C188.022 24.976 186.934 22.048 186.934 18.336C186.934 14.784 188.134 11.84 190.534 9.504C192.934 7.168 196.166 6 200.23 6C204.198 6 207.398 7.04 209.83 9.12C212.262 11.2 213.478 13.984 213.478 17.472V20.064L191.638 20.112ZM206.374 12.144C204.902 10.768 202.854 10.08 200.23 10.08C197.606 10.08 195.542 10.768 194.038 12.144C192.886 13.2 192.134 14.496 191.782 16.032H208.486C208.198 14.496 207.494 13.2 206.374 12.144Z" fill="#E5E5E5"/>
</svg>
