<svg width="485" height="363" viewBox="0 0 485 363" fill="none" xmlns="http://www.w3.org/2000/svg">
<g clip-path="url(#clip0_35_188)">
<path d="M46.307 356.937C-5.30331 317.687 -28.2883 208.85 55.5118 155.48C110.991 120.154 145.496 140.306 207.908 116.937C284.101 88.415 295.458 2.24103 388.137 44.6432C437.237 67.0997 471.274 130.393 477.262 202.328C483.131 272.774 458.168 321.111 407.155 354.187C287.362 359.285 167.329 358.361 46.307 356.937Z" fill="#2F37FF" fill-opacity="0.25"/>
<path d="M258.334 47.3606C266.126 78.6649 237.186 109.654 206.68 122.502C176.186 135.361 141.214 133.828 108.535 127.698C94.4396 125.056 79.9422 121.339 68.9985 112.35C58.044 103.361 51.6973 87.7519 57.6962 75.1432C62.9888 64.0236 75.8886 58.328 88.1799 55.4041C100.471 52.4802 113.534 51.2845 124.478 45.1323C134.867 39.2954 142.235 29.6323 151.266 21.9802C167.959 7.86059 191.401 0.860596 213.103 5.32799C234.806 9.79538 251.705 20.7519 258.334 47.3606Z" fill="#DFF3FC"/>
<path d="M24.8325 191.35V167.665H33.8091C34.885 163.524 36.526 159.621 38.6343 156.024L32.2877 149.665L49.0347 132.915L55.3922 139.263C58.9894 137.154 62.8909 135.513 67.0314 134.437V125.458H90.712V134.437C94.8525 135.513 98.754 137.154 102.351 139.263L108.709 132.915L125.456 149.665L119.109 156.024C121.217 159.621 122.848 163.524 123.934 167.665H132.911V191.35H123.934C122.848 195.491 121.206 199.393 119.109 202.991L125.456 209.35L108.709 226.1L102.351 219.752C98.754 221.861 94.8525 223.491 90.712 224.578V233.556H67.0314V224.578C62.8909 223.491 58.9894 221.861 55.3922 219.752L49.0347 226.1L32.2877 209.35L38.6343 202.991C36.526 199.393 34.885 195.491 33.8091 191.35H24.8325ZM78.8554 200.024C90.1903 200.024 99.3734 190.839 99.3734 179.502C99.3734 168.176 90.1903 158.991 78.8554 158.991C67.5313 158.991 58.3482 168.176 58.3482 179.502C58.3482 190.839 67.5422 200.024 78.8554 200.024Z" fill="#A2C7EB"/>
<path d="M96.374 250.687L100.884 238.937L105.34 240.643C106.666 238.795 108.22 237.176 109.948 235.784L108.013 231.426L119.5 226.306L121.446 230.665C123.63 230.306 125.88 230.23 128.14 230.48L129.846 226.024L141.583 230.545L139.877 235.002C141.725 236.328 143.344 237.882 144.735 239.611L149.093 237.676L154.211 249.165L149.854 251.111C150.212 253.295 150.277 255.545 150.038 257.806L154.494 259.513L149.984 271.263L145.528 269.556C144.202 271.404 142.648 273.024 140.92 274.415L142.855 278.774L131.368 283.893L129.422 279.534C127.238 279.893 124.988 279.958 122.728 279.719L121.022 284.176L109.274 279.665L110.98 275.208C109.133 273.882 107.513 272.328 106.122 270.6L101.764 272.534L96.6457 261.045L101.004 259.1C100.645 256.915 100.569 254.665 100.819 252.404L96.374 250.687ZM121.522 265.274C127.14 267.426 133.443 264.621 135.606 259.002C137.758 253.382 134.954 247.078 129.336 244.926C123.717 242.774 117.414 245.578 115.262 251.197C113.099 256.806 115.914 263.121 121.522 265.274Z" stroke="#A2C7EB" stroke-miterlimit="10"/>
<path d="M134.856 209.491L137.899 201.556L140.91 202.708C141.801 201.458 142.855 200.361 144.029 199.426L142.714 196.48L150.473 193.024L151.788 195.969C153.266 195.73 154.787 195.676 156.309 195.85L157.461 192.839L165.394 195.882L164.242 198.893C165.492 199.785 166.59 200.839 167.524 202.013L170.469 200.698L173.925 208.458L170.98 209.774C171.219 211.252 171.274 212.763 171.1 214.295L174.11 215.448L171.067 223.382L168.057 222.23C167.155 223.48 166.112 224.578 164.938 225.513L166.253 228.458L158.493 231.915L157.178 228.969C155.7 229.208 154.19 229.263 152.657 229.089L151.505 232.1L143.572 229.056L144.724 226.045C143.474 225.143 142.377 224.1 141.442 222.926L138.497 224.241L135.041 216.48L137.986 215.165C137.747 213.687 137.693 212.165 137.867 210.643L134.856 209.491ZM151.842 219.35C155.635 220.806 159.895 218.904 161.352 215.111C162.808 211.317 160.906 207.056 157.113 205.6C153.32 204.143 149.06 206.045 147.604 209.839C146.148 213.632 148.05 217.893 151.842 219.35Z" stroke="#A2C7EB" stroke-miterlimit="10"/>
<path d="M137.617 70.5454C137.617 82.4476 143.181 93.0562 151.831 99.9041C158.2 104.958 166.253 107.958 175.034 107.958C183.782 107.958 191.846 104.958 198.236 99.9041C206.898 93.0454 212.451 82.4367 212.451 70.5454C212.451 49.8823 195.704 33.1215 175.034 33.1215C154.364 33.1215 137.617 49.8823 137.617 70.5454Z" fill="#0097D8" stroke="#0097D8" stroke-miterlimit="10"/>
<path d="M173.513 70.3942C166.799 69.5655 162.029 63.4502 162.857 56.7355C163.686 50.0207 169.8 45.2492 176.514 46.078C183.227 46.9068 187.998 53.022 187.169 59.7367C186.341 66.4515 180.227 71.223 173.513 70.3942Z" fill="white"/>
<path d="M151.831 95.1867C158.2 100.241 166.253 103.241 175.034 103.241C183.782 103.241 191.846 100.241 198.236 95.1867C195.845 84.6541 193.639 75.5671 191.346 73.2628C188.108 70.0236 179.511 68.1432 175.045 68.1432C170.578 68.1432 161.569 70.4367 159.906 72.0997C156.515 75.4801 153.592 84.8171 151.831 95.1867Z" fill="white"/>
<path d="M228.796 162.784V144.306C228.796 139.263 224.71 135.176 219.667 135.176H161.46C156.418 135.176 152.331 139.263 152.331 144.306V162.784C152.331 167.828 156.418 171.915 161.46 171.915H219.656C224.699 171.926 228.796 167.828 228.796 162.784Z" fill="#0097D8"/>
<path d="M204.213 161.817L232.382 189.263L186.727 166.187" fill="#0097D8"/>
<path d="M221.732 143.85V143.752C221.732 143.002 221.123 142.393 220.374 142.393H191.596C190.846 142.393 190.238 143.002 190.238 143.752V143.85C190.238 144.6 190.846 145.208 191.596 145.208H220.374C221.123 145.208 221.732 144.6 221.732 143.85Z" fill="white"/>
<path d="M188.944 143.85V143.752C188.944 143.002 188.336 142.393 187.586 142.393H162.471C161.721 142.393 161.113 143.002 161.113 143.752V143.85C161.113 144.6 161.721 145.208 162.471 145.208H187.586C188.336 145.208 188.944 144.6 188.944 143.85Z" fill="white"/>
<path d="M199.91 150.035V149.937C199.91 149.187 199.301 148.578 198.551 148.578H162.471C161.721 148.578 161.113 149.187 161.113 149.937V150.035C161.113 150.785 161.721 151.393 162.471 151.393H198.551C199.301 151.393 199.91 150.785 199.91 150.035Z" fill="white"/>
<path d="M221.732 150.035V149.937C221.732 149.187 221.123 148.578 220.374 148.578H204.257C203.507 148.578 202.898 149.187 202.898 149.937V150.035C202.898 150.785 203.507 151.393 204.257 151.393H220.374C221.123 151.393 221.732 150.785 221.732 150.035Z" fill="white"/>
<path d="M194.9 156.219V156.121C194.9 155.371 194.291 154.763 193.541 154.763H162.471C161.721 154.763 161.112 155.371 161.112 156.121V156.219C161.112 156.969 161.721 157.578 162.471 157.578H193.541C194.291 157.578 194.9 156.969 194.9 156.219Z" fill="white"/>
<path d="M221.732 156.219V156.121C221.732 155.371 221.123 154.763 220.374 154.763H198.91C198.16 154.763 197.552 155.371 197.552 156.121V156.219C197.552 156.969 198.16 157.578 198.91 157.578H220.374C221.123 157.578 221.732 156.969 221.732 156.219Z" fill="white"/>
<path d="M221.732 162.404V162.306C221.732 161.556 221.123 160.948 220.374 160.948H212.408C211.658 160.948 211.049 161.556 211.049 162.306V162.404C211.049 163.154 211.658 163.763 212.408 163.763H220.374C221.123 163.763 221.732 163.154 221.732 162.404Z" fill="white"/>
<path d="M208.234 162.404V162.306C208.234 161.556 207.626 160.948 206.876 160.948H162.471C161.721 160.948 161.113 161.556 161.113 162.306V162.404C161.113 163.154 161.721 163.763 162.471 163.763H206.876C207.626 163.763 208.234 163.154 208.234 162.404Z" fill="white"/>
<path d="M372.468 136.631C364.081 118.603 371.894 97.1895 389.918 88.8011C407.942 80.4128 429.352 88.2267 437.739 106.254C446.126 124.281 438.313 145.695 420.289 154.084C402.265 162.472 380.855 154.658 372.468 136.631Z" fill="#0097D8"/>
<path d="M410.707 147.347C406.16 145.75 403.768 140.768 405.366 136.22C406.963 131.672 411.944 129.28 416.491 130.877C421.039 132.475 423.43 137.457 421.833 142.005C420.236 146.553 415.254 148.945 410.707 147.347Z" fill="white"/>
<path d="M418.175 142.241L418.599 136.708L414.013 133.578L409.014 135.98L408.59 141.513L413.176 144.643L418.175 142.241Z" fill="#0097D8"/>
<path d="M393.704 111.991C389.166 110.369 386.802 105.374 388.425 100.835C390.047 96.296 395.041 93.9318 399.579 95.5544C404.117 97.177 406.481 102.172 404.859 106.711C403.236 111.25 398.242 113.614 393.704 111.991Z" fill="white"/>
<path d="M400.961 106.382L400.656 99.3388L395.353 94.7084L390.354 97.1105L390.658 104.143L395.962 108.784L400.961 106.382Z" fill="#0097D8"/>
<path d="M407.558 135.078L414.23 131.871L409.296 120.491C408.981 119.774 408.644 119.056 408.275 118.361L402.482 107.393L395.81 110.6L400.57 121.806C400.939 122.676 401.341 123.524 401.787 124.35L407.558 135.078Z" fill="white"/>
<path d="M380.117 140.817C378.834 140.219 358.175 141.165 358.175 141.165L373.064 127.491L380.117 140.817Z" fill="#0097D8"/>
<path d="M288.98 60.5733C281.224 42.6394 289.472 21.8125 307.402 14.0551C325.333 6.29766 346.156 14.5473 353.912 32.4812C361.668 50.4151 353.42 71.242 335.489 78.9994C317.559 86.7568 296.736 78.5071 288.98 60.5733Z" fill="#0097D8"/>
<path d="M320.258 16.3715H322.616V46.0889H320.258V16.3715Z" fill="white"/>
<path d="M347.538 63.2463L346.196 65.1857L321.436 48.0446L322.778 46.1053L347.538 63.2463Z" fill="white"/>
<path d="M318.182 46.5237C318.182 48.3172 319.638 49.7846 321.442 49.7846C323.236 49.7846 324.703 48.328 324.703 46.5237C324.703 44.7302 323.246 43.2628 321.442 43.2628C319.638 43.2628 318.182 44.7302 318.182 46.5237Z" fill="white"/>
<path d="M225.394 286.111C227.492 253.763 213.342 220.284 189.509 201.132C188.771 233.643 202.779 266.545 225.394 286.111Z" fill="#A2C7EB"/>
<path d="M193.4 209.839C203.442 228.556 212.125 248.143 219.341 268.35C228.111 292.882 235.012 318.948 250.031 339.513" stroke="#6F8BBF" stroke-miterlimit="10" stroke-linecap="round"/>
<path d="M232.915 306.458C220.852 279.469 196.91 259.078 170.513 253.306C181.75 282.23 207.028 304.295 232.915 306.458Z" fill="#A2C7EB"/>
<path d="M176.99 259.252C195.019 275.122 213.353 290.545 231.991 305.513" stroke="#6F8BBF" stroke-miterlimit="10" stroke-linecap="round"/>
<path d="M240.033 329.969C223.916 305.893 194.183 293.328 169.578 300.198C187.673 323.969 217.472 336.567 240.033 329.969Z" fill="#A2C7EB"/>
<path d="M175.479 301.937C196.606 315.154 219.395 324.915 242.891 330.785" stroke="#6F8BBF" stroke-miterlimit="10" stroke-linecap="round"/>
<path d="M231.328 298.274C226.177 271.165 233.904 240.948 251.107 220.958C258.16 247.6 251.433 278.817 231.328 298.274Z" fill="#A2C7EB"/>
<path d="M249.336 227.871C245.945 253.089 239.913 276.708 230.567 299.795" stroke="#6F8BBF" stroke-miterlimit="10" stroke-linecap="round"/>
<path d="M240.174 321.361C242.37 293.491 256.65 267.317 277.537 252.871C276.331 267.632 272.408 281.861 266.181 294.795C259.019 309.654 248.499 319.078 240.174 321.361Z" fill="#A2C7EB"/>
<path d="M274.44 258.513C266.224 281.752 254.4 303.295 239.653 321.948" stroke="#6F8BBF" stroke-miterlimit="10" stroke-linecap="round"/>
<path d="M78.8662 314.676C67.4661 285.013 41.2425 260.948 12.3238 253.621C24.9954 282.882 50.8604 306.469 78.8662 314.676Z" fill="#A2C7EB"/>
<path d="M19.3335 259.785C35.874 272.361 51.5886 286.263 66.2381 301.317C84.0393 319.6 100.83 339.991 122.532 352.187" stroke="#6F8BBF" stroke-miterlimit="10" stroke-linecap="round"/>
<path d="M93.8527 329.73C72.1283 310.611 42.6119 302.219 16.9208 307.85C38.6995 329.034 70.0852 338.371 93.8527 329.73Z" fill="#A2C7EB"/>
<path d="M25.0824 310.513C47.524 317.295 70.0526 323.545 92.6572 329.274" stroke="#6F8BBF" stroke-miterlimit="10" stroke-linecap="round"/>
<path d="M109.785 347.774C85.6694 332.904 54.2403 333.85 35.3089 350.013C61.0434 363.795 92.5486 362.85 109.785 347.774Z" fill="#A2C7EB"/>
<path d="M41.2317 349.143C65.3144 352.295 89.4731 351.687 112.632 347.328" stroke="#6F8BBF" stroke-miterlimit="10" stroke-linecap="round"/>
<path d="M89.0927 323.089C73.4324 301.045 67.8791 270.969 74.8887 246.143C92.0486 266.991 98.8953 297.545 89.0927 323.089Z" fill="#A2C7EB"/>
<path d="M76.1602 253.013C83.5067 276.861 87.8429 300.361 89.0383 324.752" stroke="#6F8BBF" stroke-miterlimit="10" stroke-linecap="round"/>
<path d="M106.372 340.045C96.8956 314.328 98.7866 285.176 111.328 263.784C116.305 277.426 118.674 291.697 118.468 305.763C118.24 321.915 112.806 334.611 106.372 340.045Z" fill="#A2C7EB"/>
<path d="M110.915 270.067C113.175 294.121 111.556 318.143 106.166 340.774" stroke="#6F8BBF" stroke-miterlimit="10" stroke-linecap="round"/>
<path d="M401.96 262.817C413.578 227.263 446.018 198.534 483.739 190.382C467.883 221.143 439.117 245.621 401.96 262.817Z" fill="#A2C7EB"/>
<path d="M399.993 268.328C425.456 253.937 457.353 250.763 485 259.861C459.352 272.676 428.967 276.241 399.993 268.328Z" fill="#A2C7EB"/>
<path d="M392.951 276.045C420.468 272.23 449.278 279.013 471.622 294.567C446.29 303.774 415.893 297.795 392.951 276.045Z" fill="#A2C7EB"/>
<path d="M384.377 292.882C411.622 292.774 438.411 305.719 454.429 326.752C442.301 329.187 429.423 327.73 418.305 322.687C407.177 317.654 397.853 309.056 384.377 292.882Z" fill="#A2C7EB"/>
<path d="M365.163 321.067C392.028 316.458 420.653 324.785 440.03 342.85C428.467 347.241 415.523 347.948 403.688 344.828C391.865 341.698 381.203 334.774 365.163 321.067Z" fill="#A2C7EB"/>
<path d="M394.169 264.502C411.905 240.589 416.719 208.361 406.645 180.937C398.95 193.969 392.31 207.752 389.213 222.404C386.116 237.056 386.713 252.676 394.169 264.502Z" fill="#A2C7EB"/>
<path d="M383.334 287.578C387.539 262.165 378.845 235.241 360.501 216.839C358.392 243.121 366.434 269.904 383.334 287.578Z" fill="#A2C7EB"/>
<path d="M475.491 196.752C421.5 231.306 379.269 282.806 356.979 341.328" stroke="#6F8BBF" stroke-miterlimit="10" stroke-linecap="round"/>
<path d="M404.971 193.545C398.407 220.219 394.407 247.448 393.06 274.763" stroke="#6F8BBF" stroke-miterlimit="10" stroke-linecap="round"/>
<path d="M364.532 227.154C366.684 248.676 373.335 269.708 383.953 288.654" stroke="#6F8BBF" stroke-miterlimit="10" stroke-linecap="round"/>
<path d="M473.632 260.48C448.876 265.187 423.717 267.741 398.548 268.111" stroke="#6F8BBF" stroke-miterlimit="10" stroke-linecap="round"/>
<path d="M458.722 292.448C435.9 290.784 413.437 285.263 392.679 276.176" stroke="#6F8BBF" stroke-miterlimit="10" stroke-linecap="round"/>
<path d="M445.04 322.915C423.978 312.404 402.917 301.882 381.855 291.382" stroke="#6F8BBF" stroke-miterlimit="10" stroke-linecap="round"/>
<path d="M431.346 341.469C403.851 336.165 395.679 329.828 365.163 321.067" stroke="#6F8BBF" stroke-miterlimit="10" stroke-linecap="round"/>
<path d="M257.258 291.089C257.258 291.089 254.878 312.904 252.216 314.654C247.456 317.795 192.357 325.056 192.357 325.056L194.161 339.393C194.161 339.393 269.626 346.176 272.832 342.404C278.396 335.861 288.177 304.295 288.177 304.295L257.258 291.089Z" fill="#E06A58"/>
<path d="M293.643 234.926L287.546 220.285C287.546 220.285 271.006 228.056 265.55 237.654C259.714 247.915 252.574 302.469 252.574 302.469C252.574 302.469 281.776 309.198 287.144 306.339C292.513 303.48 293.643 234.926 293.643 234.926Z" fill="#F2AE30"/>
<path d="M340.08 166.969C344.351 165.404 348.872 164.035 353.448 164.382C358.023 164.73 362.696 167.154 364.25 171.176C365.359 174.024 364.848 177.382 366.597 179.948C368.271 182.404 371.597 183.426 374.705 183.632C377.824 183.85 380.964 183.437 384.062 183.839C393.625 185.111 400.45 195.502 397.309 204.013C396.06 207.404 393.495 210.643 394.082 214.176C394.701 217.958 398.668 220.448 400.298 223.958C402.461 228.632 399.874 234.295 395.603 237.48C391.332 240.654 385.779 241.861 380.388 242.665C372.966 243.774 365.304 244.295 357.969 242.73C350.633 241.165 343.623 237.295 339.83 231.252C338.146 228.578 337.124 225.556 335.168 223.045C331.126 217.861 323.964 215.85 318.323 212.176C312.162 208.143 307.641 200.295 311.27 194.154C314.77 188.252 323.877 186.937 327.528 181.122C329.039 178.719 329.398 175.861 330.376 173.241C331.375 170.611 333.766 169.285 340.08 166.969Z" fill="#0A2240"/>
<path d="M315.194 239.371C314.118 240.611 312.846 241.969 311.086 242.089C309.227 242.219 307.673 240.904 306.478 239.632C300.305 233.1 296.23 225.078 294.578 216.806C296.11 215.937 297.588 215.1 298.925 214.317C300.164 213.578 301.098 212.545 301.631 211.339C302 210.448 302.131 209.513 302.033 208.535C301.164 200.361 300.392 195.806 297.523 187.513C311.151 184.437 324.007 180.785 331.397 174.611C332.299 178.415 333.364 185.861 335.636 193.241C338.059 201.056 341.841 208.785 348.253 212.111C335.668 219.545 324.442 228.785 315.194 239.371Z" fill="#F9A07B"/>
<path d="M302.033 208.545C302.131 209.524 302 210.469 301.631 211.35C309.695 221.132 327.724 208.35 335.636 193.252C333.364 185.871 332.299 178.426 331.397 174.621C324.018 180.795 311.151 184.458 297.523 187.524C300.392 195.817 301.164 200.361 302.033 208.545Z" fill="#E06A58"/>
<path d="M279.58 326.806C281.363 338.611 268.626 351.317 268.311 357.622C295.36 357.622 352.024 359.274 380.877 355.35C382.192 348.067 367.945 331.687 367.945 315.513C367.945 313.372 368.032 311.024 368.206 308.502C368.662 301.285 369.727 292.698 370.912 283.893C374.129 260.274 378.41 235.013 375.248 229.774C369.053 219.567 354.567 212.632 347.383 209.654C344.916 208.632 343.308 208.078 343.189 208.013C334.179 223.382 315.846 236.491 308.923 235.904C306.999 235.752 301.294 233.763 297.523 214.774C296.056 215.611 294.589 216.382 293.132 217.132C285.971 220.861 279.254 223.937 277.32 228.73C272.212 241.35 267.202 273.165 268.311 284.48C269.43 295.893 274.016 304.611 277.233 316.067C277.983 318.752 278.667 321.6 279.222 324.665C279.363 325.35 279.472 326.067 279.58 326.806Z" fill="#FFC73C"/>
<path d="M268.311 357.621C295.36 357.621 352.024 359.274 380.877 355.35C382.192 348.067 367.945 331.687 367.945 315.513C367.945 313.371 368.032 311.024 368.206 308.502C368.662 301.285 369.727 292.698 370.912 283.893C365.793 289.295 358.327 266.469 355.023 273.154C337.146 309.241 323.051 318.73 298.555 318.73C291.252 318.73 284.514 317.719 277.233 316.067C277.983 318.752 278.667 321.6 279.222 324.665C279.352 325.361 279.472 326.078 279.58 326.817C281.363 338.6 268.626 351.306 268.311 357.621Z" fill="#FFBB33"/>
<path d="M293.132 217.132C294.295 225.578 297.74 236.958 307.76 239.958C321.301 244.013 340.895 218.708 347.383 209.654C344.916 208.632 343.308 208.078 343.188 208.013C334.179 223.382 315.845 236.491 308.923 235.904C306.999 235.752 301.294 233.763 297.523 214.774C296.056 215.6 294.588 216.372 293.132 217.132Z" fill="#FCE172"/>
<path d="M287.568 344.915L287.666 354.339L119.218 355.339L118.87 344.654L287.568 344.915Z" fill="#325F73"/>
<path d="M46.2092 260.839L49.9586 257.035L172.654 256.23L234.208 345.263L230.991 347.85L46.2092 260.839Z" fill="#325F73"/>
<path d="M170.285 259.524L230.991 347.85L115.034 348.426L46.2092 260.839L170.285 259.524Z" fill="#0B2D50"/>
<path d="M140.986 315.904C133.531 315.904 127.488 312.882 127.488 309.154C127.488 305.426 133.531 302.404 140.986 302.404C148.44 302.404 154.483 305.426 154.483 309.154C154.483 312.882 148.44 315.904 140.986 315.904Z" fill="#3C738C"/>
<path d="M260.561 176.898C258.649 166.635 262.585 157.293 269.353 156.031C276.121 154.77 283.158 162.067 285.07 172.33C286.982 182.593 283.046 191.935 276.278 193.197C269.51 194.458 262.473 187.161 260.561 176.898Z" fill="#56C4F9"/>
<path d="M260.551 144.687C261.812 153.622 265.8 163.469 271.615 174.35C273.658 165.437 274.962 154.578 276.766 143.719C278.602 132.839 280.939 121.958 284.993 113.067C285.906 111.1 286.894 109.219 287.97 107.48C285.569 107.252 283.134 107.48 280.819 108.122C277.201 109.089 273.81 110.958 271.039 113.458C266.431 117.556 263.344 123.143 261.508 129.035C259.997 133.926 259.725 139.122 260.551 144.687Z" fill="#0B2D50"/>
<path d="M267.376 153.926C267.441 155.687 267.561 157.48 267.724 159.263C270.202 188.176 282.341 208.013 300.914 208.013C327.137 208.013 344.134 178.6 344.134 149.785C344.134 121.361 326.724 100.785 306.348 103.165C294.6 104.513 286.014 108.415 279.918 114.132C275.886 117.937 272.973 122.535 270.984 127.763C268.713 133.621 267.615 140.252 267.387 147.393C267.387 147.415 267.365 147.437 267.365 147.458C267.278 149.567 267.3 151.719 267.376 153.926Z" fill="#F9A07B"/>
<path d="M267.376 153.926C268.159 151.132 269.322 148.404 270.908 145.958C286.373 154.045 304.804 157.165 322.28 154.208C325.605 156.98 328.854 159.708 332.126 162.437C332.06 149.285 331.876 140.382 326.746 134.013C321.932 128.035 313.901 125.785 306.293 124.806C297.73 123.687 289.025 123.73 280.483 124.969C277.212 125.426 273.821 126.132 270.974 127.785C268.702 133.643 267.605 140.274 267.376 147.415C267.376 147.437 267.355 147.458 267.355 147.48C267.279 149.567 267.3 151.719 267.376 153.926Z" fill="#E06A58"/>
<path d="M263.594 136.121C267.191 139.165 271.701 141.687 276.766 143.73C291.176 149.545 309.901 151.469 324.496 150.763C331.669 166.524 334.571 172.176 336.407 185.926C343.417 179.35 349.122 167.306 350.818 157.839C352.491 148.404 352.328 138.502 349.698 129.23C345.558 114.611 335.114 106.785 327.876 102.98C326.072 101.991 324.442 101.306 323.181 100.806C313.933 97.2302 303.511 97.5563 294.024 100.458C288.851 102.067 284.493 104.785 280.83 108.132C273.429 114.817 268.854 123.871 265.898 130.654C264.964 132.73 264.214 134.611 263.594 136.121Z" fill="#0B2D50"/>
<path d="M260.551 144.687C261.149 141.524 262.04 138.458 263.301 135.502C264.007 133.828 264.877 132.208 265.887 130.643C269.18 125.469 273.973 121.208 279.765 119.328C281.417 117.013 283.156 114.926 284.982 113.078C291.557 106.393 299.273 102.567 307.445 101.23C314.248 100.132 321.323 100.752 327.854 102.969C326.05 101.98 324.42 101.295 323.16 100.795C313.911 97.2193 303.489 97.5454 294.002 100.448C288.829 102.056 284.471 104.774 280.809 108.121C277.19 109.089 273.799 110.958 271.028 113.458C266.42 117.556 263.333 123.143 261.497 129.035C259.997 133.926 259.725 139.121 260.551 144.687Z" fill="#225570"/>
<path d="M316.139 162.415C311.292 159.643 306.261 158.393 299.207 160.969" stroke="#0B2D50" stroke-width="2" stroke-miterlimit="10" stroke-linecap="round"/>
<path d="M282.949 162.219C278.798 159.122 272.647 158.806 269.441 162.219" stroke="#0B2D50" stroke-width="2" stroke-miterlimit="10" stroke-linecap="round"/>
<path d="M287.959 178.024C287.536 180.219 287.764 185.078 288.807 187.263" stroke="#CC454E" stroke-width="2" stroke-miterlimit="10" stroke-linecap="round"/>
<path d="M304.337 179.502C303.233 179.502 302.337 178.091 302.337 176.35C302.337 174.609 303.233 173.198 304.337 173.198C305.441 173.198 306.337 174.609 306.337 176.35C306.337 178.091 305.441 179.502 304.337 179.502Z" fill="#262D40"/>
<path d="M278.2 178.035C277.096 178.035 276.201 176.623 276.201 174.882C276.201 173.141 277.096 171.73 278.2 171.73C279.305 171.73 280.2 173.141 280.2 174.882C280.2 176.623 279.305 178.035 278.2 178.035Z" fill="#262D40"/>
<path d="M290.437 191.556C290.437 191.556 290.828 192.317 291.578 193.35C292.752 194.926 294.752 197.1 297.479 197.948H297.49C298.642 198.317 299.892 198.448 301.283 198.198C305.369 197.469 306.445 193.698 306.641 190.795C306.684 190.23 306.684 189.708 306.673 189.23C306.652 188.056 306.521 187.274 306.521 187.274C300.012 190.861 290.437 191.556 290.437 191.556Z" fill="#CC454E"/>
<path d="M290.437 191.556C290.437 191.556 290.828 192.317 291.578 193.35C294.904 193.306 301.707 191.6 306.673 189.23C306.652 188.056 306.521 187.274 306.521 187.274C300.012 190.861 290.437 191.556 290.437 191.556Z" fill="white"/>
<path d="M297.49 197.937C298.642 198.306 299.892 198.437 301.283 198.187C305.369 197.458 306.445 193.687 306.641 190.785C304.663 191.024 302.75 191.785 301.164 192.991C299.501 194.263 298.229 195.991 297.49 197.937Z" fill="#E8729B"/>
<path d="M336.342 157.426C336.342 157.426 336.57 143.872 330.93 130.404C323.855 113.502 309.434 106.274 295.447 105.785C278.592 105.187 268.039 116.502 268.039 116.502C268.039 116.502 273.527 106.817 284.351 104.035C291.459 102.209 302.185 101.915 310.792 105.415C319.66 109.013 330.713 119.002 334.712 129.556C338.7 140.111 340.646 156.545 340.646 156.545L336.342 157.426Z" fill="#3D86E0"/>
<path d="M336.627 192.715C329.41 191.964 324.481 182.489 325.618 171.551C326.755 160.612 333.527 152.353 340.745 153.104C347.962 153.854 352.891 163.33 351.754 174.268C350.617 185.206 343.844 193.465 336.627 192.715Z" fill="#56C4F9"/>
<path d="M339.948 189.206C335.288 188.506 332.51 181.292 333.741 173.094C334.973 164.896 339.749 158.817 344.408 159.517C349.067 160.218 351.846 167.431 350.614 175.63C349.383 183.828 344.607 189.906 339.948 189.206Z" fill="#3D86E0"/>
<path d="M295.339 208.415C291.473 208.415 288.34 206.464 288.34 204.056C288.34 201.649 291.473 199.698 295.339 199.698C299.204 199.698 302.337 201.649 302.337 204.056C302.337 206.464 299.204 208.415 295.339 208.415Z" fill="#3A92C9"/>
<path d="M330.495 189.48C330.495 189.48 320.215 202.698 302.337 204.056" stroke="#3A92C9" stroke-width="2" stroke-miterlimit="10" stroke-linecap="round"/>
<path d="M287.666 319.752L288.34 337.132C288.34 337.132 351.187 355.969 361.566 350.013C366.63 347.1 371.358 331.078 374.889 315.437C378.584 299.002 380.954 283.002 380.954 283.002L344.112 275.785C344.112 275.785 344.091 298.252 342.841 311.241C342.395 316.078 341.754 319.6 340.896 320.176C337.646 322.317 287.666 319.752 287.666 319.752Z" fill="#F9A07B"/>
<path d="M342.841 311.219C349.535 313.393 362.457 316.752 374.889 315.426C378.584 298.991 380.954 282.991 380.954 282.991L344.112 275.774C344.112 275.763 344.091 298.23 342.841 311.219Z" fill="#E06A58"/>
<path d="M289.459 319.926C280.113 317.926 264.29 313.122 257.726 311.469C253.063 310.295 240.924 316.578 237.718 322.502C236.316 325.089 234.991 339.741 239.848 338.23C242.283 337.469 241.881 331.187 242.641 328.622C243.261 326.535 245.239 324.513 248.249 322.774C246.239 327.785 246.315 332.154 246.532 337.567C246.575 338.763 246.652 340.013 247.228 341.045C247.814 342.078 249.075 342.817 250.162 342.361C251.27 341.904 251.651 340.524 251.901 339.317C252.759 335.143 253.629 330.969 253.976 326.252C253.889 330.893 253.987 335.545 254.281 340.176C254.498 343.719 256.259 345.665 258.421 345.045C259.388 344.774 259.78 343.882 260.193 342.708C260.845 344.98 262.475 347.491 264.583 346.535C265.865 345.959 266.659 341.328 266.431 336.567C270.473 339.078 275.038 340.143 280.298 340.382C285.014 340.6 289.839 339.719 292.676 336.513C292.393 331.502 290.741 324.089 289.459 319.926Z" fill="#F9A07B"/>
<path d="M260.095 341.991C259.78 338.23 260.106 334.415 261.062 330.785" stroke="#CC454E" stroke-miterlimit="10" stroke-linecap="round"/>
<path d="M348.253 239.328C350.926 231.795 360.718 216.382 360.718 216.382C360.718 216.382 375.661 222.6 380.964 233.154C389.941 251.024 385.377 302.328 385.377 302.328C373.281 307.393 349.003 307.469 338.668 306.013C338.668 306.013 342.895 254.382 348.253 239.328Z" fill="#FFC73C"/>
<path d="M346.351 242.48C342.276 261.991 340.091 280.187 339.396 298.013" stroke="#F2AE30" stroke-miterlimit="10" stroke-linecap="round"/>
<path d="M26.517 352.241H455.005V362.991H26.517V352.241Z" fill="#0B2D50"/>
</g>
<defs>
<clipPath id="clip0_35_188">
<rect width="485" height="362.982" fill="white" transform="matrix(-1 0 0 1 485 0.0090332)"/>
</clipPath>
</defs>
</svg>
